# xmcd
#
# Track frame offsets: 
#        150
#        12037
#        30957
#        47135
#        63392
#        76817
#        87442
#        116285
#        123917
#        144632
#
# Disc length: 2086 seconds
#
# Revision: 2
# Processed by: cddbd v1.4PL0 Copyright (c) Steve Scherf et al.
# Submitted via: ExactAudioCopy v0.90a11
#
DISCID=7208240a
DTITLE=B.B. King - Live At The Regal (MFSL)
DYEAR=1900
DGENRE=
TTITLE0=Every Day I Have The Blues
TTITLE1=Sweet Little Angel
TTITLE2=It's My Own Fault
TTITLE3=How BLue Can You Get
TTITLE4=Please Love Me
TTITLE5=You Upset Me Baby
TTITLE6=Worry, Worry
TTITLE7=Woke Up This Mornin'
TTITLE8=You Done Lost Your Good Thing Now
TTITLE9=Help The Poor
EXTD=A Classic Revisited\n--------------\n\nB.B. King: Live at the Reg
EXTD=al\nThe definitive recording of blues live in performance...\nThi
EXTD=s unique Regal session is the definitive statement of B.B.\nKing'
EXTD=s phenomenal rapport with a crowd, of the miraculous\nvibrations 
EXTD=that can exist between audience and performer.\nIn essence, it te
EXTD=lls you how, where and why he ultimately\nbecame King of the Blue
EXTD=s...\n\n\nIntroduced by Dicsc Jockey E. Rodney Jones\nProduced by
EXTD=Johnny Pate\n\n(c) 1971 MCA Records, Inc.\nMCABD 31106\n7673-111
EXTD=06-2\n
EXTT0=
EXTT1=
EXTT2=
EXTT3=
EXTT4=
EXTT5=
EXTT6=
EXTT7=
EXTT8=
EXTT9=
PLAYORDER=
